<?xml version="1.0" encoding="utf-8"?>
<!-- Generator: Adobe Illustrator 19.0.0, SVG Export Plug-In . SVG Version: 6.00 Build 0)  -->
<svg version="1.1" id="Layer_1" xmlns="http://www.w3.org/2000/svg" xmlns:xlink="http://www.w3.org/1999/xlink" x="0px" y="0px"
	 viewBox="0 0 752.9 764.9" style="enable-background:new 0 0 752.9 764.9;" xml:space="preserve">
<style type="text/css">
	.st0{fill:#EC202B;}
</style>
<path id="XMLID_15_" class="st0" d="M735.2,748.2L567.3,579.9l-34.6-34.7c16.8-9.3,32.5-20.2,46.9-32.6
	c59.6-51.2,97.3-127,97.3-211.7c0-147.4-114.3-268.1-259.1-278.3l-0.7-0.7H95H27.8v67.3v659H95v-659H398v0
	c115.3,0,208.8,96.4,208.8,211.8c0,85.4-51.2,160.4-124.6,193.6c-23.7,10.7-49.7,17.1-77,18l0.1,0.1l59.2,59.3l8,8l100.8,101h-76.6
	l-217.6-218h107.4v-0.3c91.1,0,165-73.9,165-165s-73.9-165-165-165H168v67.3h218.3c54,0,97.8,43.8,97.8,97.8s-43.8,97.8-97.8,97.8
	v0.3H235.3H169h-1V447l0,0l0,0v301.2h67.3V514.4l233.3,233.8l95,0l0,0H735.2L735.2,748.2L735.2,748.2z"/>
</svg>
